<svg id="Layer_1" data-name="Layer 1" xmlns="http://www.w3.org/2000/svg" viewBox="0 0 329.69 466.54"><path d="M186.42,336.87c.92,1.57,1.73,3.22,2.78,4.69a178.88,178.88,0,0,0,22.29,25.24c3.79,3.61,7.87,6.9,11.81,10.35.88.78,1.71,1.62,2.56,2.43l-.25.5c-.64-.13-1.28-.21-1.9-.38a156.75,156.75,0,0,1-37.42-16.46,234.41,234.41,0,0,1-46.24-35.49c-8.9-8.84-17-18.37-23.42-29.24a16.9,16.9,0,0,1-.8-1.52,3.32,3.32,0,0,1-.07-.94,19.76,19.76,0,0,1,2.75.59,159.34,159.34,0,0,0,51,10.34c.83,0,1.66.17,2.48.15a12.86,12.86,0,0,0,3.26-.51,26.6,26.6,0,0,1-4.58-.65c-7-2.23-14.11-4.14-20.84-7-10.51-4.45-20.71-9.63-31.11-14.37-7.64-3.48-12.46-9.38-15.71-17a129.88,129.88,0,0,1-8.56-31.14,212.49,212.49,0,0,1-2.31-34.37c0-5.3.24-10.6.38-15.9a3.69,3.69,0,0,1,.52-1.79c11.19,24.56,28.12,43.82,51.27,57.44l.45-.38c-.9-1.07-1.74-2.2-2.73-3.19a176,176,0,0,1-27-34.9A143.57,143.57,0,0,1,101.05,173c-2.74-8.85-2.28-17.8-.74-26.75,3.18-18.61,10.35-35.76,19.64-52.08l5-8.79.53,0c.15,2.08.35,4.17.44,6.26.52,12.85,1.66,25.61,4.61,38.16a119.49,119.49,0,0,0,12.38,31.66c.56,1,1.19,1.94,1.78,2.9l.51-.14a40.28,40.28,0,0,0-.79-4.11,141.52,141.52,0,0,1-6.14-31.92,203.91,203.91,0,0,1-.2-25.45c.62-9.67,2.2-19.27,3.47-28.89a6.48,6.48,0,0,1,1.61-3.31A160.05,160.05,0,0,1,187.59,37a222.64,222.64,0,0,1,34.63-13.87,8.26,8.26,0,0,1,1.32-.09c-.84.77-1.28,1.23-1.78,1.62-5.36,4.12-10.94,8-16.08,12.38a104.56,104.56,0,0,0-31.4,46.41c-5.22,15.22-6.75,30.92-5.68,46.87a189,189,0,0,0,6.77,38.43,20,20,0,0,1-.78,14A104.18,104.18,0,0,0,167,229.83c.87,13.75,5.84,26.22,13,37.89,7.42,12.16,17.41,22,28.15,31.13a1.28,1.28,0,0,0,1,.3c-15.26-14.24-25.82-31.22-30.81-51.54-2.59-10.53-4.42-21.13-3.8-32,.15-2.77.65-5.53,1-8.29l.49-.08c.33.84.72,1.66,1,2.52a133.53,133.53,0,0,0,16.4,35.33,143.35,143.35,0,0,0,29.92,32.12c2,1.63,3.88,3.51,5.92,5.14a3.31,3.31,0,0,0,2.33.6c3-.43,4.69-2.19,5.76-5.09,2.84-7.67,2.08-14.95-2.63-21.47-4-5.58-10.16-8-16.86-8.75a61.14,61.14,0,0,0-7-.05c.58-4.86,6.27-10.76,11.41-11.53a38.13,38.13,0,0,1,9.12.07,15.18,15.18,0,0,0,6.9-.88,34.72,34.72,0,0,1,17.37-1.42c7.51,1.15,14.57,3.77,21.61,6.46,4.45,1.69,9,2.52,13.68,1.34a4.9,4.9,0,0,1,1,0c-1.5,3.67-3.79,6.43-7.54,7.13a52,52,0,0,1-10.07.53,79.44,79.44,0,0,1-8-.91c.75,1.44,1.3,2.61,1.95,3.72,3.37,5.77,4.66,12.13,5.22,18.67.23,2.79.11,5.62.3,8.42a2.68,2.68,0,0,0,1,2,49,49,0,0,0,6.73,2.61,3.06,3.06,0,0,0,2.41-.62c5.16-4.39,10.31-8.78,15.32-13.33a127.25,127.25,0,0,0,36.18-55.35c.8-2.44,1.65-4.87,2.6-7.69,5.13,15.63-1.91,68.4-33.28,92.95,1.09-.84,2.24-1.62,3.27-2.53,11.48-10.19,22-21.17,29.19-35,5.45-10.48,9.13-21.45,9.81-33.37a110.5,110.5,0,0,0-8.91-49.71,8.44,8.44,0,0,1-.5-5.88A230.55,230.55,0,0,0,345.28,133a119.55,119.55,0,0,0-3.91-44.41c-7.07-24.52-21.29-43.92-41.94-58.72-2.44-1.75-4.85-3.54-7.26-5.33-.48-.36-.9-.79-1.74-1.54a10.86,10.86,0,0,1,1.63.19c18.77,5.82,36.59,13.64,52.88,24.78,9.76,6.67,18.35,14.65,26.53,23.13a3.62,3.62,0,0,1,.91,1.82c2.31,13.87,4.31,27.77,4.14,41.89a160.8,160.8,0,0,1-6.74,44.75c-.35,1.16-.56,2.36-.8,3.54a1.39,1.39,0,0,0,.35,1.13c.57-.84,1.2-1.65,1.7-2.53,8.59-15,13.4-31.18,15.35-48.23,1-8.74,1.34-17.56,2-26.35,0-.6.13-1.19.24-2.16a8.73,8.73,0,0,1,.86,1c10.13,17,18.8,34.58,23.11,54,2.06,9.34,3.45,18.78,1.57,28.31-1.57,8-4.76,15.36-8.34,22.59a171.47,171.47,0,0,1-32.23,45.67,26.08,26.08,0,0,0-3.83,4.91,116.9,116.9,0,0,0,30.18-24.31c8.74-9.72,15.26-20.9,21.26-32.57a5,5,0,0,1,.26,1.11c.13,9.45.58,18.92.27,28.36-.51,15.43-2.64,30.66-7.54,45.38-2,6-4.37,11.77-8.12,16.86a16.83,16.83,0,0,1-5.1,4.78c-7.94,4.36-15.89,8.76-24.12,12.51-8.53,3.88-17.34,7.18-26.15,10.41-3.79,1.39-7.89,1.94-11.2,2.72,3.29,0,7.31.21,11.3,0s8.11-.89,12.15-1.53,7.93-1.36,11.84-2.26,7.93-2,11.84-3.15,7.64-2.56,11.46-3.85l.37.57c-.39.76-.71,1.56-1.15,2.29-7.37,12.18-16.64,22.79-26.94,32.52a239.3,239.3,0,0,1-45.17,33.45,155.61,155.61,0,0,1-34.76,14.94c-.64.18-1.3.26-2,.38l-.27-.47c1.38-1.27,2.69-2.61,4.14-3.78a188.93,188.93,0,0,0,32.07-33.59,58.31,58.31,0,0,0,3.16-5.13l-.42-.61a10.45,10.45,0,0,0-2.34.61c-6.36,3.53-12.84,6.88-19,10.73-8.56,5.33-16.87,11.07-25.32,16.58-1.28.84-1.46,1.51-.7,2.91,4.81,8.91,8.86,18.12,10.33,28.28a102.76,102.76,0,0,1-7.75,57.69,108.36,108.36,0,0,1-24.83,34.9c-.4.38-.87.7-1.73,1.38,0-15.24-3.57-29.25-9.28-43a8.28,8.28,0,0,0-5.5,7.59c-.29,3.85,0,7.75.13,11.63a4.07,4.07,0,0,1-.19,1.89c-.65-.7-1.35-1.36-1.94-2.11-9.72-12.48-16.52-26.33-18.4-42.16-1.82-15.33.71-29.92,9-43.25,2.32-3.74,4.48-7.59,6.76-11.36.73-1.21.61-2-.61-2.85a411.5,411.5,0,0,0-43.05-27.21c-1.82-1-3.77-1.72-5.65-2.57Z" transform="translate(-92.13 -23.04)"/></svg>